<svg xmlns="http://www.w3.org/2000/svg" width="2216" height="268" viewBox="0 0 2216 268" font-family="Inter, system-ui, -apple-system, Segoe UI, Roboto, sans-serif"><defs><marker id="a" viewBox="0 0 10 10" refX="9" refY="5" markerWidth="7" markerHeight="7" orient="auto"><path d="M0 1L9 5L0 9z" fill="#6a718a"/></marker></defs><rect width="2216" height="268" fill="#14171f"/><text x="16" y="34" font-size="18" font-weight="700" fill="#e8eaf3">Lanzamiento App Móvil</text><text x="158.5" y="34" font-size="13" fill="#6a718a">· Ejecutivo</text><line x1="0" x2="2216" y1="80.5" y2="80.5" stroke="#262b3a"/><line x1="0" x2="2216" y1="111.5" y2="111.5" stroke="#262b3b"/><line x1="248" x2="248" y1="56" y2="256" stroke="#262b3a"/><text x="256" y="72" font-size="11" font-weight="600" fill="#e8eaf3">septiembre 2026</text><line x1="633.7142857142858" x2="633.7142857142858" y1="56" y2="256" stroke="#262b3a"/><text x="641.7142857142858" y="72" font-size="11" font-weight="600" fill="#e8eaf3">octubre 2026</text><line x1="1032.2857142857142" x2="1032.2857142857142" y1="56" y2="256" stroke="#262b3a"/><text x="1040.2857142857142" y="72" font-size="11" font-weight="600" fill="#e8eaf3">noviembre 2026</text><line x1="1418" x2="1418" y1="56" y2="256" stroke="#262b3a"/><text x="1426" y="72" font-size="11" font-weight="600" fill="#e8eaf3">diciembre 2026</text><line x1="1816.5714285714287" x2="1816.5714285714287" y1="56" y2="256" stroke="#262b3a"/><text x="1824.5714285714287" y="72" font-size="11" font-weight="600" fill="#e8eaf3">enero 2027</text><line x1="248" x2="248" y1="80" y2="256" stroke="#1c202c"/><text x="286.57142857142856" y="100" font-size="11" text-anchor="middle" fill="#a3a9be">31 ago</text><line x1="325.1428571428571" x2="325.1428571428571" y1="80" y2="256" stroke="#1c202c"/><text x="370.1428571428571" y="100" font-size="11" text-anchor="middle" fill="#a3a9be">7 sep</text><line x1="415.1428571428571" x2="415.1428571428571" y1="80" y2="256" stroke="#1c202c"/><text x="460.1428571428571" y="100" font-size="11" text-anchor="middle" fill="#a3a9be">14 sep</text><line x1="505.14285714285717" x2="505.14285714285717" y1="80" y2="256" stroke="#1c202c"/><text x="550.1428571428571" y="100" font-size="11" text-anchor="middle" fill="#a3a9be">21 sep</text><line x1="595.1428571428571" x2="595.1428571428571" y1="80" y2="256" stroke="#1c202c"/><text x="640.1428571428571" y="100" font-size="11" text-anchor="middle" fill="#a3a9be">28 sep</text><line x1="685.1428571428571" x2="685.1428571428571" y1="80" y2="256" stroke="#1c202c"/><text x="730.1428571428571" y="100" font-size="11" text-anchor="middle" fill="#a3a9be">5 oct</text><line x1="775.1428571428571" x2="775.1428571428571" y1="80" y2="256" stroke="#1c202c"/><text x="820.1428571428571" y="100" font-size="11" text-anchor="middle" fill="#a3a9be">12 oct</text><line x1="865.1428571428571" x2="865.1428571428571" y1="80" y2="256" stroke="#1c202c"/><text x="910.1428571428571" y="100" font-size="11" text-anchor="middle" fill="#a3a9be">19 oct</text><line x1="955.1428571428572" x2="955.1428571428572" y1="80" y2="256" stroke="#1c202c"/><text x="1000.1428571428572" y="100" font-size="11" text-anchor="middle" fill="#a3a9be">26 oct</text><line x1="1045.1428571428573" x2="1045.1428571428573" y1="80" y2="256" stroke="#1c202c"/><text x="1090.1428571428573" y="100" font-size="11" text-anchor="middle" fill="#a3a9be">2 nov</text><line x1="1135.1428571428573" x2="1135.1428571428573" y1="80" y2="256" stroke="#1c202c"/><text x="1180.1428571428573" y="100" font-size="11" text-anchor="middle" fill="#a3a9be">9 nov</text><line x1="1225.1428571428573" x2="1225.1428571428573" y1="80" y2="256" stroke="#1c202c"/><text x="1270.1428571428573" y="100" font-size="11" text-anchor="middle" fill="#a3a9be">16 nov</text><line x1="1315.142857142857" x2="1315.142857142857" y1="80" y2="256" stroke="#1c202c"/><text x="1360.142857142857" y="100" font-size="11" text-anchor="middle" fill="#a3a9be">23 nov</text><line x1="1405.142857142857" x2="1405.142857142857" y1="80" y2="256" stroke="#1c202c"/><text x="1450.142857142857" y="100" font-size="11" text-anchor="middle" fill="#a3a9be">30 nov</text><line x1="1495.142857142857" x2="1495.142857142857" y1="80" y2="256" stroke="#1c202c"/><text x="1540.142857142857" y="100" font-size="11" text-anchor="middle" fill="#a3a9be">7 dic</text><line x1="1585.142857142857" x2="1585.142857142857" y1="80" y2="256" stroke="#1c202c"/><text x="1630.142857142857" y="100" font-size="11" text-anchor="middle" fill="#a3a9be">14 dic</text><line x1="1675.142857142857" x2="1675.142857142857" y1="80" y2="256" stroke="#1c202c"/><text x="1720.142857142857" y="100" font-size="11" text-anchor="middle" fill="#a3a9be">21 dic</text><line x1="1765.142857142857" x2="1765.142857142857" y1="80" y2="256" stroke="#1c202c"/><text x="1810.142857142857" y="100" font-size="11" text-anchor="middle" fill="#a3a9be">28 dic</text><line x1="1855.142857142857" x2="1855.142857142857" y1="80" y2="256" stroke="#1c202c"/><text x="1900.142857142857" y="100" font-size="11" text-anchor="middle" fill="#a3a9be">4 ene</text><line x1="1945.142857142857" x2="1945.142857142857" y1="80" y2="256" stroke="#1c202c"/><text x="1990.142857142857" y="100" font-size="11" text-anchor="middle" fill="#a3a9be">11 ene</text><line x1="2035.142857142857" x2="2035.142857142857" y1="80" y2="256" stroke="#1c202c"/><text x="2080.142857142857" y="100" font-size="11" text-anchor="middle" fill="#a3a9be">18 ene</text><line x1="2125.142857142857" x2="2125.142857142857" y1="80" y2="256" stroke="#1c202c"/><text x="2170.142857142857" y="100" font-size="11" text-anchor="middle" fill="#a3a9be">25 ene</text><text x="16" y="100" font-size="10.5" font-weight="600" fill="#6a718a" letter-spacing="0.4">TAREA</text><line x1="247.5" x2="247.5" y1="56" y2="256" stroke="#262b3b"/><rect x="299.42857142857144" y="112" width="25.714285714285715" height="144" fill="rgba(255,255,255,0.022)"/><rect x="389.42857142857144" y="112" width="25.714285714285715" height="144" fill="rgba(255,255,255,0.022)"/><rect x="479.42857142857144" y="112" width="25.714285714285715" height="144" fill="rgba(255,255,255,0.022)"/><rect x="569.4285714285714" y="112" width="25.714285714285715" height="144" fill="rgba(255,255,255,0.022)"/><rect x="659.4285714285714" y="112" width="25.714285714285715" height="144" fill="rgba(255,255,255,0.022)"/><rect x="749.4285714285714" y="112" width="25.714285714285715" height="144" fill="rgba(255,255,255,0.022)"/><rect x="839.4285714285714" y="112" width="25.714285714285715" height="144" fill="rgba(255,255,255,0.022)"/><rect x="929.4285714285714" y="112" width="25.714285714285715" height="144" fill="rgba(255,255,255,0.022)"/><rect x="1019.4285714285714" y="112" width="25.714285714285715" height="144" fill="rgba(255,255,255,0.022)"/><rect x="1109.4285714285716" y="112" width="25.714285714285715" height="144" fill="rgba(255,255,255,0.022)"/><rect x="1199.4285714285716" y="112" width="25.714285714285715" height="144" fill="rgba(255,255,255,0.022)"/><rect x="1289.4285714285716" y="112" width="25.714285714285715" height="144" fill="rgba(255,255,255,0.022)"/><rect x="1379.4285714285716" y="112" width="25.714285714285715" height="144" fill="rgba(255,255,255,0.022)"/><rect x="1469.4285714285716" y="112" width="25.714285714285715" height="144" fill="rgba(255,255,255,0.022)"/><rect x="1508" y="112" width="12.857142857142858" height="144" fill="rgba(255,255,255,0.022)"/><rect x="1559.4285714285716" y="112" width="25.714285714285715" height="144" fill="rgba(255,255,255,0.022)"/><rect x="1649.4285714285716" y="112" width="25.714285714285715" height="144" fill="rgba(255,255,255,0.022)"/><rect x="1726.5714285714287" y="112" width="38.57142857142857" height="144" fill="rgba(255,255,255,0.022)"/><rect x="1829.4285714285716" y="112" width="25.714285714285715" height="144" fill="rgba(255,255,255,0.022)"/><rect x="1919.4285714285716" y="112" width="25.714285714285715" height="144" fill="rgba(255,255,255,0.022)"/><rect x="2009.4285714285716" y="112" width="25.714285714285715" height="144" fill="rgba(255,255,255,0.022)"/><rect x="2099.4285714285716" y="112" width="25.714285714285715" height="144" fill="rgba(255,255,255,0.022)"/><rect x="2189.4285714285716" y="112" width="25.714285714285715" height="144" fill="rgba(255,255,255,0.022)"/><rect x="0" y="112" width="2216" height="36" fill="rgba(255,255,255,0.025)"/><line x1="0" x2="2216" y1="147.5" y2="147.5" stroke="#1c202c"/><rect x="0" y="148" width="2216" height="36" fill="rgba(255,255,255,0.025)"/><line x1="0" x2="2216" y1="183.5" y2="183.5" stroke="#1c202c"/><rect x="0" y="184" width="2216" height="36" fill="rgba(255,255,255,0.025)"/><line x1="0" x2="2216" y1="219.5" y2="219.5" stroke="#1c202c"/><rect x="0" y="220" width="2216" height="36" fill="rgba(255,255,255,0.025)"/><line x1="0" x2="2216" y1="255.5" y2="255.5" stroke="#1c202c"/><text x="16" y="134" font-size="12.5" font-weight="600" fill="#e8eaf3" text-anchor="start">Descubrimiento</text><text x="16" y="170" font-size="12.5" font-weight="600" fill="#e8eaf3" text-anchor="start">Diseño</text><text x="16" y="206" font-size="12.5" font-weight="600" fill="#e8eaf3" text-anchor="start">Desarrollo</text><text x="16" y="242" font-size="12.5" font-weight="600" fill="#e8eaf3" text-anchor="start">Lanzamiento</text><rect x="685.1428571428571" y="125" width="154.28571428571428" height="10" rx="2" fill="#5b5bf7" opacity="0.8"/><path d="M685.1428571428571 135l0 5l5 -5z M839.4285714285713 135l0 5l-5 -5z" fill="#5b5bf7" opacity="0.8"/><rect x="834.4285714285714" y="125" width="10" height="10" rx="1.5" fill="#e8eaf3" transform="rotate(45 839.4285714285714 130)"/><text x="849.4285714285713" y="134" font-size="11.5" font-weight="600" fill="#e8eaf3">Descubrimiento</text><rect x="865.1428571428571" y="161" width="128.57142857142858" height="10" rx="2" fill="#14b8a6" opacity="0.8"/><path d="M865.1428571428571 171l0 5l5 -5z M993.7142857142857 171l0 5l-5 -5z" fill="#14b8a6" opacity="0.8"/><text x="1003.7142857142857" y="170" font-size="11.5" font-weight="600" fill="#e8eaf3">Diseño</text><rect x="865.1428571428571" y="197" width="398.5714285714286" height="10" rx="2" fill="#f59e0b" opacity="0.8"/><path d="M865.1428571428571 207l0 5l5 -5z M1263.7142857142858 207l0 5l-5 -5z" fill="#f59e0b" opacity="0.8"/><rect x="1258.7142857142858" y="197" width="10" height="10" rx="1.5" fill="#e8eaf3" transform="rotate(45 1263.7142857142858 202)"/><text x="1273.7142857142858" y="206" font-size="11.5" font-weight="600" fill="#e8eaf3">Desarrollo</text><rect x="1263.7142857142858" y="233" width="192.85714285714286" height="10" rx="2" fill="#ec4899" opacity="0.8"/><path d="M1263.7142857142858 243l0 5l5 -5z M1456.5714285714287 243l0 5l-5 -5z" fill="#ec4899" opacity="0.8"/><rect x="1451.5714285714287" y="233" width="10" height="10" rx="1.5" fill="#e8eaf3" transform="rotate(45 1456.5714285714287 238)"/><text x="1466.5714285714287" y="242" font-size="11.5" font-weight="600" fill="#e8eaf3">Lanzamiento</text><line x1="890.8571428571429" x2="890.8571428571429" y1="80" y2="256" stroke="#ff6369" stroke-width="1.5"/></svg>